<svg viewBox="0 0 640 1850" xmlns="http://www.w3.org/2000/svg" style="background:#fafafa; max-width:100%; height:auto; font-family: system-ui,-apple-system,sans-serif;">
  <defs>
    <marker id="ar" markerWidth="10" markerHeight="10" refX="9" refY="5" orient="auto">
      <path d="M0,0 L10,5 L0,10 z" fill="#e8a500"/>
    </marker>
    <marker id="arB" markerWidth="8" markerHeight="8" refX="7" refY="4" orient="auto">
      <path d="M0,0 L8,4 L0,8 z" fill="#2255aa"/>
    </marker>
    <marker id="arBs" markerWidth="8" markerHeight="8" refX="1" refY="4" orient="auto">
      <path d="M8,0 L0,4 L8,8 z" fill="#2255aa"/>
    </marker>
    <marker id="arO" markerWidth="10" markerHeight="10" refX="9" refY="5" orient="auto">
      <path d="M0,0 L10,5 L0,10 z" fill="#d48c00"/>
    </marker>
  </defs>

  <style>
    .title { font-size: 17px; font-weight: 700; fill: #1a1a1a; }
    .sub { font-size: 12px; fill: #555; }
    .lbl { font-size: 11px; fill: #333; font-weight: 600; }
    .dim { font-size: 11px; fill: #2255aa; font-weight: 600; }
    .num { font-weight: 900; fill: #ffb824; text-anchor: middle; }
    .note { font-size: 10px; fill: #888; font-style: italic; }
  </style>

  <!-- ========== Panel 1: Isometric view ========== -->
  <g>
    <rect x="0" y="0" width="640" height="460" fill="#fff" stroke="#e0e0e0"/>
    <text x="20" y="28" class="title">1. 아이소메트릭 뷰</text>
    <text x="20" y="46" class="sub">10면 decagonal prism · 수직축 · 아크릴 10장 + 상·하 캡 + 축 + 모터</text>

    <!-- Top cap: decagon viewed from above at slight angle, shown as ellipse-like polygon -->
    <!-- Back half of top cap (lighter) -->
    <path d="M 210 160 L 227 137 L 272 129 L 328 129 L 373 137 L 390 160"
          fill="#e8eef5" stroke="#5a7aa0" stroke-width="1.3"/>
    <!-- Front half of top cap (darker due to shadow) -->
    <path d="M 210 160 L 227 183 L 272 191 L 328 191 L 373 183 L 390 160 Z"
          fill="#c8d5e3" stroke="#5a7aa0" stroke-width="1.3"/>
    <text x="400" y="145" class="sub">상부 캡 (3D 프린트)</text>
    <text x="400" y="158" class="note">면 10개 슬롯</text>

    <!-- Side edges of drum -->
    <line x1="210" y1="160" x2="210" y2="265" stroke="#5a7aa0" stroke-width="1.2"/>
    <line x1="390" y1="160" x2="390" y2="265" stroke="#5a7aa0" stroke-width="1.2"/>

    <!-- Front face panels (acrylic) - 3 visible -->
    <polygon points="272,191 227,183 227,285 272,297"
             fill="#eaf2fb" stroke="#2f5179" stroke-width="1.4" opacity="0.85"/>
    <text x="250" y="250" class="num" font-size="30" transform="rotate(-5 250 250)">4</text>

    <polygon points="328,191 272,191 272,297 328,297"
             fill="#f5faff" stroke="#2f5179" stroke-width="1.6"/>
    <text x="300" y="258" class="num" font-size="44">3</text>

    <polygon points="373,183 328,191 328,297 373,285"
             fill="#eaf2fb" stroke="#2f5179" stroke-width="1.4" opacity="0.85"/>
    <text x="350" y="250" class="num" font-size="30" transform="rotate(5 350 250)">2</text>

    <text x="125" y="225" class="lbl">아크릴</text>
    <text x="125" y="240" class="lbl">판 × 10</text>
    <text x="125" y="258" class="note">(투명 3mm,</text>
    <text x="125" y="270" class="note"> 뒷면 반사시트)</text>

    <!-- Bottom cap (front arc, positioned above panel bottom to show panels extend below) -->
    <path d="M 210 265 L 227 278 L 272 284 L 328 284 L 373 278 L 390 265"
          fill="#c8d5e3" stroke="#5a7aa0" stroke-width="1.3"/>
    <text x="400" y="280" class="sub">하부 캡</text>
    <text x="400" y="293" class="note">(패널 하단 미덮음)</text>

    <!-- Exposed bottom edges of front panels (where light enters) -->
    <line x1="272" y1="297" x2="328" y2="297" stroke="#e8a500" stroke-width="3"/>
    <text x="460" y="300" class="sub" fill="#b37400">← LED 광 주입 엣지</text>

    <!-- Shaft extending down through bottom cap toward motor -->
    <line x1="300" y1="272" x2="300" y2="345" stroke="#555" stroke-width="4"/>
    <text x="310" y="320" class="dim">축 (∅5)</text>

    <!-- Motor -->
    <rect x="265" y="345" width="70" height="50" fill="#cfd8e3" stroke="#555" stroke-width="1.5"/>
    <circle cx="300" cy="352" r="4" fill="#888" stroke="#333"/>
    <text x="300" y="378" class="lbl" text-anchor="middle">28BYJ-48 (5V)</text>

    <!-- Bearing on top -->
    <line x1="300" y1="135" x2="300" y2="108" stroke="#555" stroke-width="2.5"/>
    <rect x="287" y="96" width="26" height="12" fill="#bbb" stroke="#555" stroke-width="1.2"/>
    <text x="320" y="105" class="sub">볼 베어링 608 (프레임 고정)</text>

    <!-- LED bar (front-bottom) -->
    <rect x="230" y="325" width="140" height="9" fill="#fff1a0" stroke="#c99400" stroke-width="1"/>
    <text x="300" y="352" class="note" text-anchor="middle" opacity="0">LED bar</text>
    <text x="380" y="335" class="sub">LED 바 (5V, 공통)</text>

    <!-- Light rays -->
    <line x1="260" y1="324" x2="287" y2="300" stroke="#e8a500" stroke-width="1.3" marker-end="url(#ar)"/>
    <line x1="300" y1="324" x2="300" y2="300" stroke="#e8a500" stroke-width="1.3" marker-end="url(#ar)"/>
    <line x1="340" y1="324" x2="313" y2="300" stroke="#e8a500" stroke-width="1.3" marker-end="url(#ar)"/>

    <!-- Dimensions -->
    <line x1="210" y1="432" x2="390" y2="432" stroke="#2255aa" stroke-width="0.8" marker-start="url(#arBs)" marker-end="url(#arB)"/>
    <text x="300" y="448" class="dim" text-anchor="middle">∅ 90mm</text>

    <line x1="455" y1="160" x2="455" y2="265" stroke="#2255aa" stroke-width="0.8" marker-start="url(#arBs)" marker-end="url(#arB)"/>
    <text x="465" y="215" class="dim">L 50mm</text>
  </g>

  <!-- ========== Panel 2: Top view ========== -->
  <g transform="translate(0,460)">
    <rect x="0" y="0" width="640" height="460" fill="#fff" stroke="#e0e0e0"/>
    <text x="20" y="28" class="title">2. 평면도 (위에서 ↓ 내려다본 시점)</text>
    <text x="20" y="46" class="sub">10면 규칙 decagon · 면 = 27.8mm · 내각 144° · 한 눈금 = 36° 회전</text>

    <!-- Decagon centered at (230, 250), radius 120 -->
    <polygon points="267.1,364.1 192.9,364.1 132.9,320.5 110,250 132.9,179.5 192.9,135.9 267.1,135.9 327.1,179.5 350,250 327.1,320.5"
             fill="#eaf2fb" stroke="#2f5179" stroke-width="2"/>

    <!-- Digits at each face centroid (inside decagon, radius 80 from center) -->
    <text x="230" y="337" class="num" font-size="24">0</text>
    <text x="183" y="322" class="num" font-size="24">1</text>
    <text x="154" y="280" class="num" font-size="24">2</text>
    <text x="154" y="230" class="num" font-size="24">3</text>
    <text x="183" y="189" class="num" font-size="24">4</text>
    <text x="230" y="172" class="num" font-size="24">5</text>
    <text x="277" y="189" class="num" font-size="24">6</text>
    <text x="306" y="230" class="num" font-size="24">7</text>
    <text x="306" y="280" class="num" font-size="24">8</text>
    <text x="277" y="322" class="num" font-size="24">9</text>

    <!-- Center shaft -->
    <circle cx="230" cy="250" r="6" fill="#555" stroke="#222"/>
    <text x="242" y="255" class="sub">축</text>

    <!-- Front indicator -->
    <path d="M 230 395 L 220 410 L 240 410 Z" fill="#0d7a3f"/>
    <text x="230" y="428" class="lbl" text-anchor="middle" fill="#0d7a3f">정면 (뷰어 방향)</text>
    <text x="230" y="442" class="note" text-anchor="middle">현재는 "0"이 정면</text>

    <!-- Rotation arc -->
    <path d="M 360 250 A 130 130 0 0 1 320 347" fill="none" stroke="#d48c00" stroke-width="2.2" marker-end="url(#arO)"/>
    <text x="395" y="290" class="lbl" fill="#b37400">1 눈금</text>
    <text x="395" y="306" class="lbl" fill="#b37400">= 36°</text>
    <text x="395" y="322" class="note" fill="#b37400">(숫자 1칸)</text>

    <!-- Diameter -->
    <line x1="110" y1="440" x2="350" y2="440" stroke="#2255aa" stroke-width="0.8" marker-start="url(#arBs)" marker-end="url(#arB)"/>
    <text x="230" y="408" class="dim" text-anchor="middle">∅ 90mm</text>

    <!-- Chord dimension detail -->
    <line x1="267" y1="364" x2="193" y2="364" stroke="#2255aa" stroke-width="1.5"/>
    <line x1="267" y1="364" x2="267" y2="380" stroke="#2255aa" stroke-width="0.5"/>
    <line x1="193" y1="364" x2="193" y2="380" stroke="#2255aa" stroke-width="0.5"/>
    <text x="488" y="200" class="dim">면(chord) = 27.8 mm</text>
    <text x="488" y="216" class="sub">= 아크릴 판 폭</text>
    <line x1="485" y1="222" x2="270" y2="364" stroke="#2255aa" stroke-width="0.5" stroke-dasharray="3,2" opacity="0.5"/>

    <!-- Note -->
    <text x="20" y="452" class="note">※ 모든 자리(HH:MM 4개 드럼)가 동일 구조. 자리별로 사용하는 숫자 범위만 다름 (시십=0~2, 분십=0~5 등).</text>
  </g>

  <!-- ========== Panel 3: Side cross-section ========== -->
  <g transform="translate(0,920)">
    <rect x="0" y="0" width="640" height="460" fill="#fff" stroke="#e0e0e0"/>
    <text x="20" y="28" class="title">3. 측면 단면도 · 조립 구조</text>
    <text x="20" y="46" class="sub">베어링(상) → 아크릴 드럼 → 커플러 → 모터(하) · LED는 드럼 바깥 앞쪽</text>

    <!-- Viewer -->
    <text x="30" y="205" font-size="30">👁</text>

    <!-- Front cover -->
    <rect x="95" y="80" width="6" height="270" fill="#aaa" stroke="#666"/>
    <text x="75" y="365" class="sub">전면 커버</text>

    <!-- Top frame -->
    <rect x="120" y="80" width="370" height="10" fill="#909090" stroke="#555"/>
    <text x="495" y="88" class="sub">상부 프레임</text>

    <!-- Top bearing -->
    <rect x="225" y="88" width="30" height="15" fill="#ddd" stroke="#333" stroke-width="1.2"/>
    <circle cx="240" cy="95" r="4" fill="#888"/>
    <text x="262" y="99" class="sub">608 베어링</text>

    <!-- Shaft from bearing down -->
    <line x1="240" y1="95" x2="240" y2="345" stroke="#444" stroke-width="3.5"/>

    <!-- Top cap -->
    <rect x="170" y="115" width="140" height="8" fill="#a0b0c0" stroke="#5a7aa0" stroke-width="1"/>
    <text x="320" y="122" class="sub">상부 캡</text>

    <!-- Front acrylic panel (left edge of drum in side view) -->
    <rect x="170" y="115" width="4" height="175" fill="#bbd3eb" stroke="#2f5179" stroke-width="0.8" opacity="0.85"/>
    <!-- Reflective sheet behind the front panel -->
    <rect x="175" y="115" width="1.5" height="175" fill="#aaa"/>
    
    <!-- Back acrylic panel (right edge) -->
    <rect x="306" y="115" width="4" height="175" fill="#bbd3eb" stroke="#2f5179" stroke-width="0.8" opacity="0.4"/>
    <rect x="304.5" y="115" width="1.5" height="175" fill="#aaa" opacity="0.5"/>

    <!-- Drum interior outline -->
    <rect x="170" y="120" width="140" height="155" fill="none" stroke="#5a7aa0" stroke-width="1" stroke-dasharray="4,3"/>

    <!-- Bottom cap (above panel bottom) -->
    <rect x="170" y="270" width="140" height="8" fill="#a0b0c0" stroke="#5a7aa0" stroke-width="1"/>
    <text x="320" y="278" class="sub">하부 캡</text>

    <!-- Labels for front panel -->
    <text x="45" y="145" class="lbl">앞면</text>
    <text x="45" y="160" class="lbl">아크릴</text>
    <text x="45" y="175" class="sub">(각인)</text>
    <text x="45" y="195" class="sub">+ 반사</text>
    <text x="45" y="209" class="sub">  시트</text>

    <!-- Exposed edge callout -->
    <line x1="170" y1="290" x2="170" y2="278" stroke="#e8a500" stroke-width="3"/>
    <rect x="165" y="278" width="12" height="12" fill="none" stroke="#d48c00" stroke-width="1.5"/>
    <text x="45" y="285" class="lbl" fill="#b37400">노출 엣지</text>
    <text x="45" y="299" class="note" fill="#b37400">(광 주입구)</text>

    <!-- Shaft coupling -->
    <rect x="228" y="345" width="24" height="12" fill="#888" stroke="#555"/>
    <text x="260" y="354" class="sub">커플러</text>

    <!-- Motor -->
    <rect x="215" y="357" width="50" height="58" fill="#d0d8e0" stroke="#555" stroke-width="1.5"/>
    <circle cx="240" cy="365" r="4" fill="#888" stroke="#333"/>
    <text x="275" y="375" class="lbl">28BYJ-48</text>
    <text x="275" y="390" class="sub">(5V 스텝)</text>
    <text x="275" y="405" class="sub">+ ULN2003</text>

    <!-- LED bar -->
    <rect x="115" y="305" width="55" height="9" fill="#fff1a0" stroke="#c99400"/>
    <text x="45" y="320" class="sub">LED 바</text>
    <text x="45" y="334" class="sub">(5V, 4자리</text>
    <text x="45" y="347" class="sub"> 공통)</text>

    <!-- Light rays up to bottom edge of front panel -->
    <line x1="130" y1="304" x2="170" y2="286" stroke="#e8a500" stroke-width="1.5" marker-end="url(#ar)"/>
    <line x1="145" y1="304" x2="171" y2="288" stroke="#e8a500" stroke-width="1.5" marker-end="url(#ar)"/>
    <line x1="160" y1="304" x2="172" y2="290" stroke="#e8a500" stroke-width="1.5" marker-end="url(#ar)"/>

    <!-- TIR trace inside front panel (up the acrylic) -->
    <path d="M 172 285 Q 171 240 173 200 Q 171 160 173 130"
          stroke="#ffd83d" stroke-width="1" fill="none"/>
    <!-- Scattered glow dots at engraved area midway -->
    <g opacity="0.9">
      <circle cx="168" cy="180" r="2" fill="#ffd83d"/>
      <circle cx="166" cy="195" r="2" fill="#ffd83d"/>
      <circle cx="168" cy="210" r="2" fill="#ffd83d"/>
      <circle cx="166" cy="225" r="1.7" fill="#ffd83d"/>
    </g>

    <!-- Depth ruler -->
    <line x1="95" y1="440" x2="310" y2="440" stroke="#2255aa" stroke-width="0.8" marker-start="url(#arBs)" marker-end="url(#arB)"/>
    <text x="200" y="432" class="dim" text-anchor="middle">전후 깊이 ~95mm (예산 120 · 여유 25)</text>

    <!-- Height dimension -->
    <line x1="340" y1="115" x2="340" y2="278" stroke="#2255aa" stroke-width="0.8" marker-start="url(#arBs)" marker-end="url(#arB)"/>
    <text x="350" y="200" class="dim">50mm</text>
    <text x="350" y="215" class="sub">(드럼)</text>
  </g>

  <!-- ========== Panel 4: Full frame top-view (6 drums) ========== -->
  <g transform="translate(0,1380)">
    <rect x="0" y="0" width="640" height="470" fill="#fff" stroke="#e0e0e0"/>
    <text x="20" y="28" class="title">4. 전체 프레임 평면도 (위에서 ↓ 내려다본 시점)</text>
    <text x="20" y="46" class="sub">6 드럼 배치 · 총폭 590mm · 드럼 간 배플 ×5 (2mm 불투명 PETG/아크릴)</text>

    <!-- Scale: 1mm = 1px (approx). Drums at 1:1 scale, left margin 25 -->
    <!-- Drum centers (X): D1=55, D2=150, D3=255, D4=385, D5=490, D6=585 -->
    <!-- Center Y = 185 -->

    <!-- Baffles (drawn first, behind drums where needed) -->
    <!-- B1: between D1-D2, center 95, width 2 -->
    <rect x="94" y="150" width="2" height="70" fill="#555"/>
    <!-- B2: between D2-D3, center 202.5, width 2 -->
    <rect x="201.5" y="135" width="2" height="100" fill="#555"/>
    <!-- B3 (colon gap): between D3-D4, center 320 -->
    <rect x="314" y="160" width="12" height="50" fill="none" stroke="#b35800" stroke-width="1.2" stroke-dasharray="3,2"/>
    <text x="320" y="190" class="lbl" text-anchor="middle" fill="#b35800">:</text>
    <text x="320" y="200" class="note" text-anchor="middle" fill="#b35800">콜론</text>
    <!-- B4: between D4-D5, center 437.5, width 2 -->
    <rect x="436.5" y="135" width="2" height="100" fill="#555"/>
    <!-- B5: between D5-D6, center 545, width 2 -->
    <rect x="544" y="150" width="2" height="70" fill="#555"/>

    <!-- Baffle label -->
    <text x="95" y="140" class="note" text-anchor="middle" fill="#555">배플 2mm × 5</text>
    <line x1="95" y1="143" x2="95" y2="149" stroke="#555" stroke-width="0.5"/>

    <!-- Drum 1: ∅60 요일, center (55, 185) -->
    <circle cx="55" cy="185" r="30" fill="#eaf2fb" stroke="#2f5179" stroke-width="1.8"/>
    <text x="55" y="182" class="lbl" text-anchor="middle">요일</text>
    <text x="55" y="196" class="note" text-anchor="middle">∅60</text>

    <!-- Drum 2: ∅90 시십, center (150, 185) -->
    <circle cx="150" cy="185" r="45" fill="#f5faff" stroke="#2f5179" stroke-width="2"/>
    <text x="150" y="180" class="lbl" text-anchor="middle">시십</text>
    <text x="150" y="195" class="note" text-anchor="middle">∅90</text>

    <!-- Drum 3: ∅90 시일, center (255, 185) -->
    <circle cx="255" cy="185" r="45" fill="#f5faff" stroke="#2f5179" stroke-width="2"/>
    <text x="255" y="180" class="lbl" text-anchor="middle">시일</text>
    <text x="255" y="195" class="note" text-anchor="middle">∅90</text>

    <!-- Drum 4: ∅90 분십, center (385, 185) -->
    <circle cx="385" cy="185" r="45" fill="#f5faff" stroke="#2f5179" stroke-width="2"/>
    <text x="385" y="180" class="lbl" text-anchor="middle">분십</text>
    <text x="385" y="195" class="note" text-anchor="middle">∅90</text>

    <!-- Drum 5: ∅90 분일, center (490, 185) -->
    <circle cx="490" cy="185" r="45" fill="#f5faff" stroke="#2f5179" stroke-width="2"/>
    <text x="490" y="180" class="lbl" text-anchor="middle">분일</text>
    <text x="490" y="195" class="note" text-anchor="middle">∅90</text>

    <!-- Drum 6: ∅60 날씨, center (585, 185) -->
    <circle cx="585" cy="185" r="30" fill="#eaf2fb" stroke="#2f5179" stroke-width="1.8"/>
    <text x="585" y="182" class="lbl" text-anchor="middle">날씨</text>
    <text x="585" y="196" class="note" text-anchor="middle">∅60</text>

    <!-- Axis dots (center shaft top) -->
    <circle cx="55" cy="185" r="2.5" fill="#555"/>
    <circle cx="150" cy="185" r="2.5" fill="#555"/>
    <circle cx="255" cy="185" r="2.5" fill="#555"/>
    <circle cx="385" cy="185" r="2.5" fill="#555"/>
    <circle cx="490" cy="185" r="2.5" fill="#555"/>
    <circle cx="585" cy="185" r="2.5" fill="#555"/>

    <!-- Gap dimensions (below drums) -->
    <!-- Gap 1: 20mm between D1 and D2, edges 85-105 -->
    <line x1="85" y1="245" x2="105" y2="245" stroke="#2255aa" stroke-width="0.8" marker-start="url(#arBs)" marker-end="url(#arB)"/>
    <text x="95" y="259" class="dim" text-anchor="middle">20</text>

    <!-- Gap 2: 15mm between D2 and D3, edges 195-210 -->
    <line x1="195" y1="245" x2="210" y2="245" stroke="#2255aa" stroke-width="0.8" marker-start="url(#arBs)" marker-end="url(#arB)"/>
    <text x="202.5" y="259" class="dim" text-anchor="middle">15</text>

    <!-- Gap 3: 40mm (colon) between D3 and D4, edges 300-340 -->
    <line x1="300" y1="245" x2="340" y2="245" stroke="#2255aa" stroke-width="0.8" marker-start="url(#arBs)" marker-end="url(#arB)"/>
    <text x="320" y="259" class="dim" text-anchor="middle">40 (콜론)</text>

    <!-- Gap 4: 15mm between D4 and D5 -->
    <line x1="430" y1="245" x2="445" y2="245" stroke="#2255aa" stroke-width="0.8" marker-start="url(#arBs)" marker-end="url(#arB)"/>
    <text x="437.5" y="259" class="dim" text-anchor="middle">15</text>

    <!-- Gap 5: 20mm between D5 and D6 -->
    <line x1="535" y1="245" x2="555" y2="245" stroke="#2255aa" stroke-width="0.8" marker-start="url(#arBs)" marker-end="url(#arB)"/>
    <text x="545" y="259" class="dim" text-anchor="middle">20</text>

    <!-- Total width dimension -->
    <line x1="25" y1="290" x2="615" y2="290" stroke="#2255aa" stroke-width="1" marker-start="url(#arBs)" marker-end="url(#arB)"/>
    <text x="320" y="282" class="dim" text-anchor="middle">총폭 590 mm</text>

    <!-- Drum outer-diameter references -->
    <text x="55" y="232" class="dim" text-anchor="middle">∅60</text>
    <text x="150" y="232" class="dim" text-anchor="middle">∅90</text>
    <text x="255" y="232" class="dim" text-anchor="middle">∅90</text>
    <text x="385" y="232" class="dim" text-anchor="middle">∅90</text>
    <text x="490" y="232" class="dim" text-anchor="middle">∅90</text>
    <text x="585" y="232" class="dim" text-anchor="middle">∅60</text>

    <!-- ====== Detail: 15mm gap zoom ====== -->
    <g transform="translate(0,310)">
      <text x="20" y="18" class="title" font-size="14">Detail A — HH·MM 내부 15mm 간격 (x8 확대)</text>

      <!-- Zoomed detail: 15mm shown as 120px, centered around x=320 -->
      <!-- Left drum edge at x=260 (local), right drum edge at x=380 (local) -->
      <!-- Baffle centered at x=320, width 16 (2mm × 8) -->

      <!-- Left drum partial (outer edge from x=210 to x=260) -->
      <path d="M 210 30 L 260 30 A 360 360 0 0 1 260 110 L 210 110 Z"
            fill="#f5faff" stroke="#2f5179" stroke-width="1.5"/>
      <text x="230" y="75" class="lbl" text-anchor="middle">드럼</text>

      <!-- Baffle (2mm → 16px wide) centered at 320 -->
      <rect x="312" y="30" width="16" height="80" fill="#555"/>
      <text x="320" y="15" class="lbl" text-anchor="middle" fill="#555">배플 2</text>

      <!-- Right drum partial -->
      <path d="M 430 30 L 380 30 A 360 360 0 0 0 380 110 L 430 110 Z"
            fill="#f5faff" stroke="#2f5179" stroke-width="1.5"/>
      <text x="410" y="75" class="lbl" text-anchor="middle">드럼</text>

      <!-- Left clearance dimension: 6.5mm (52px) from 260 to 312 -->
      <line x1="260" y1="125" x2="312" y2="125" stroke="#2255aa" stroke-width="0.8" marker-start="url(#arBs)" marker-end="url(#arB)"/>
      <text x="286" y="139" class="dim" text-anchor="middle">6.5</text>

      <!-- Baffle width dimension -->
      <line x1="312" y1="125" x2="328" y2="125" stroke="#2255aa" stroke-width="0.8" marker-start="url(#arBs)" marker-end="url(#arB)"/>
      <text x="320" y="139" class="dim" text-anchor="middle">2</text>

      <!-- Right clearance dimension -->
      <line x1="328" y1="125" x2="380" y2="125" stroke="#2255aa" stroke-width="0.8" marker-start="url(#arBs)" marker-end="url(#arB)"/>
      <text x="354" y="139" class="dim" text-anchor="middle">6.5</text>

      <!-- Total gap dimension -->
      <line x1="260" y1="150" x2="380" y2="150" stroke="#2255aa" stroke-width="1" marker-start="url(#arBs)" marker-end="url(#arB)"/>
      <text x="320" y="144" class="dim" text-anchor="middle">간격 15 mm</text>

      <!-- Notes -->
      <text x="20" y="40" class="note">· 배플 ↔ 드럼 면 클리어런스 6.5mm 확보 (D22)</text>
      <text x="20" y="55" class="note">· FDM 캡 출력 공차 ±0.6mm 누적 대비 안전 여유</text>
      <text x="20" y="70" class="note">· 조립·해체 시 T드라이버·핀셋 접근 가능</text>
    </g>

    <!-- Footer note -->
    <text x="20" y="460" class="note">※ 상세 치수: 요일↔시십 20mm / 시십↔시일 15mm / 시일↔분십 40mm(콜론) / 분십↔분일 15mm / 분일↔날씨 20mm</text>
  </g>
</svg>
